<svg width="50" height="32" viewBox="0 0 50 32" fill="none" xmlns="http://www.w3.org/2000/svg">
<path fill-rule="evenodd" clip-rule="evenodd" d="M0.749146 8.22969C1.35723 6.19795 2.84071 4.953 4.60968 3.99128C8.01434 2.13976 11.7355 1.31737 15.5158 0.707013C19.6656 0.0368336 23.851 -0.127489 28.0357 0.090603C33.6546 0.382907 39.2076 1.13033 44.3805 3.5513C46.4902 4.53878 48.3637 5.82764 49.0998 8.23044C49.0998 10.0214 49.0998 11.8116 49.0998 13.6025C48.578 14.9648 47.7314 16.0628 46.5682 16.9602C46.2767 17.1851 46.1108 17.7387 46.1086 18.1431C46.0737 21.9741 46.0881 25.8058 46.0874 29.6376C46.0874 29.9238 46.1782 30.2638 46.0556 30.4842C45.889 30.7833 45.5671 31.1718 45.2938 31.1854C45.0317 31.1991 44.6455 30.8363 44.5001 30.5448C44.3555 30.2532 44.4297 29.8458 44.429 29.4884C44.4267 25.8035 44.4275 22.1187 44.4275 18.2831C43.7702 18.5497 43.1893 18.7125 42.6956 19.0169C42.4646 19.1593 42.292 19.5697 42.2806 19.8651C42.2352 21.1168 42.3177 22.3754 42.2261 23.6226C42.1973 24.0111 41.8035 24.6449 41.5105 24.6858C40.8433 24.7805 40.6866 24.2027 40.6956 23.5961C40.7138 22.3519 40.7017 21.107 40.7017 19.7719C30.1348 22.4178 19.6747 22.4284 9.13208 19.7621C9.13208 21.0752 9.11618 22.3232 9.13889 23.5711C9.1495 24.1762 9.01394 24.7199 8.33467 24.7222C7.63344 24.7237 7.53652 24.1323 7.53652 23.5567C7.53652 22.5541 7.45246 21.5424 7.55545 20.5511C7.66601 19.4902 7.34721 18.8488 6.28022 18.6171C6.04623 18.5664 5.82888 18.4391 5.47524 18.2953C5.45479 18.7557 5.4245 19.1267 5.42375 19.4986C5.41996 22.8646 5.42451 26.2306 5.41845 29.5967C5.41694 29.9511 5.45707 30.3517 5.3094 30.6463C5.17839 30.906 4.80429 31.2104 4.55364 31.1968C4.28708 31.1824 3.96451 30.8598 3.80927 30.5902C3.68356 30.3721 3.76231 30.0321 3.76231 29.7459C3.76079 25.9141 3.74566 22.0823 3.7767 18.2506C3.78201 17.5812 3.52604 17.1912 3.08001 16.705C2.20991 15.7569 1.51701 14.646 0.749146 13.6025C0.749146 11.8108 0.749146 10.0206 0.749146 8.22969ZM24.7545 16.1878C29.4079 16.1075 33.8909 15.7614 38.2807 14.6498C41.0561 13.947 43.7921 13.1012 46.0578 11.2338C47.92 9.69802 47.9624 7.95177 46.0056 6.52357C44.697 5.56866 43.2189 4.76445 41.7051 4.19044C37.3236 2.53051 32.7277 1.96105 28.0652 1.72099C21.9859 1.40824 15.9959 1.87093 10.1241 3.51117C7.88259 4.13667 5.70545 4.95452 3.86681 6.45088C1.93503 8.0222 1.87217 9.75179 3.84636 11.2383C4.99816 12.1076 6.30747 12.8392 7.64858 13.3761C13.1789 15.5918 19.0151 16.0401 24.7545 16.1878ZM47.4035 12.6642C45.4331 13.5661 43.5195 14.5922 41.5006 15.3344C37.8294 16.6838 33.9772 17.2305 30.0871 17.5319C23.8859 18.012 17.7323 17.7197 11.6606 16.3218C8.39525 15.5699 5.23973 14.5112 2.39469 12.4961C2.56583 13.2807 2.74606 14.0796 3.22465 14.6074C3.85924 15.3063 4.66799 15.9015 5.50401 16.3529C9.20325 18.3483 13.2433 19.1654 17.3734 19.6462C24.2054 20.4406 30.9973 20.2808 37.7234 18.7489C40.5139 18.1135 43.2416 17.273 45.5989 15.5661C46.6258 14.8224 47.5709 13.9849 47.4035 12.6642Z" fill="#F50A81"/>
</svg>
