<svg width="36" height="30" viewBox="0 0 36 30" fill="none" xmlns="http://www.w3.org/2000/svg">
<path fill-rule="evenodd" clip-rule="evenodd" d="M18.1499 29.3584C13.1779 29.3594 8.20687 29.3634 3.23387 29.3574C1.64887 29.3564 1.03392 28.7384 1.02092 27.1434C1.00692 25.3304 0.979888 23.5154 1.02489 21.7034C1.04089 21.0614 1.20589 20.4114 1.37889 19.7864C2.95889 14.0754 4.55788 8.36937 6.14488 2.65937C6.48488 1.43837 7.00792 0.987375 8.28392 1.01838C9.70892 1.05338 11.1329 1.21137 12.5559 1.21437C13.8559 1.21637 15.1559 1.04138 16.4559 1.01838C18.4649 0.982375 20.4749 1.01037 22.4839 1.01037C24.3949 1.01037 26.3069 0.998373 28.2189 1.00837C29.4679 1.01537 29.9719 1.39537 30.3079 2.59337C31.9879 8.56737 33.6898 14.5344 35.2999 20.5274C35.5689 21.5254 35.4479 22.6334 35.4679 23.6914C35.4899 24.9104 35.4819 26.1304 35.4639 27.3504C35.4459 28.7104 34.8068 29.3534 33.4408 29.3554C28.3438 29.3614 23.2469 29.3564 18.1499 29.3584ZM27.1698 22.7424C27.5028 22.6794 28.0918 22.4884 28.6858 22.4694C30.2178 22.4214 31.7509 22.4564 33.2839 22.4444C34.4569 22.4344 34.8829 21.8954 34.5679 20.7624C32.8989 14.7514 31.2238 8.74237 29.5138 2.74337C29.4118 2.38837 28.9689 1.84838 28.7139 1.86438C27.2119 1.95638 25.6339 1.26538 24.202 2.23838C24.076 2.32338 23.7528 2.32437 23.6698 2.23237C23.0108 1.49237 22.1488 1.78638 21.3838 1.80938C20.3978 1.83838 19.3289 1.44437 18.4329 2.24637C18.3419 2.32837 18.0019 2.13737 17.7809 2.06637C17.4979 1.97737 17.2179 1.81037 16.9329 1.80137C15.9329 1.76737 14.8989 1.62937 13.9399 1.83037C13.0029 2.02737 12.1769 2.03638 11.2369 1.83638C10.2799 1.63238 9.24492 1.81437 8.24492 1.79137C7.54592 1.77537 7.13991 2.06637 6.95091 2.74537C5.28991 8.72837 3.61388 14.7084 1.95488 20.6924C1.60788 21.9424 2.00989 22.4384 3.32689 22.4484C4.76589 22.4584 6.20587 22.4144 7.64287 22.4664C8.30187 22.4904 8.95592 22.6874 9.79692 22.8384C10.8479 22.2304 16.8919 22.2244 17.9399 22.7804C21.1239 22.2854 23.9848 22.2944 27.1698 22.7424ZM34.6719 23.2604C32.6169 23.2604 30.6249 23.2324 28.6359 23.2834C28.2259 23.2944 27.6979 23.4964 27.4439 23.7964C26.9949 24.3274 26.7789 24.2524 26.3719 23.7744C26.1439 23.5074 25.7059 23.2894 25.3559 23.2804C23.5139 23.2334 21.6679 23.2294 19.827 23.2864C19.4599 23.2974 19.0289 23.5664 18.7579 23.8444C18.3609 24.2494 18.1339 24.2584 17.7229 23.8544C17.4269 23.5644 16.9639 23.3004 16.5669 23.2874C14.7879 23.2264 13.0039 23.2264 11.2239 23.2854C10.8279 23.2984 10.4549 23.6754 10.0479 23.8204C9.7699 23.9194 9.23088 24.0154 9.18688 23.9254C8.84888 23.2424 8.26291 23.2574 7.66191 23.2574C5.73891 23.2574 3.8169 23.2574 1.8109 23.2574C1.8109 24.4084 1.8119 25.6534 1.8109 26.8974C1.8099 28.3154 2.08991 28.5904 3.49791 28.5884C7.27991 28.5834 11.0609 28.5854 14.8439 28.5844C21.0009 28.5834 27.1578 28.5784 33.3158 28.5844C34.0698 28.5844 34.6428 28.3554 34.6648 27.5184C34.6978 26.0534 34.6719 24.5884 34.6719 23.2604Z" fill="#F50A81" stroke="#F50A81"/>
<path fill-rule="evenodd" clip-rule="evenodd" d="M18.9999 6.23938C18.6589 6.47738 18.4489 6.73738 18.2569 6.72538C18.0659 6.71338 17.8919 6.42638 17.7109 6.26038C17.9039 6.07338 18.0749 5.78938 18.3019 5.73438C18.4489 5.69838 18.6769 5.99438 18.9999 6.23938Z" fill="#F50A81" stroke="#F50A81"/>
<path fill-rule="evenodd" clip-rule="evenodd" d="M25.2399 6.21839C24.9079 6.47139 24.6998 6.7524 24.5138 6.7384C24.3198 6.7234 24.0099 6.42839 24.0039 6.24839C23.9989 6.06639 24.2908 5.7484 24.4808 5.7264C24.6678 5.7034 24.8899 5.97639 25.2399 6.21839Z" fill="#F50A81" stroke="#F50A81"/>
<path fill-rule="evenodd" clip-rule="evenodd" d="M12.0259 11.7074C11.6979 11.9604 11.4959 12.2374 11.3139 12.2244C11.1089 12.2104 10.9219 11.9344 10.7279 11.7734C10.9159 11.5734 11.0739 11.2794 11.3009 11.2094C11.4419 11.1664 11.6879 11.4624 12.0259 11.7074Z" fill="#F50A81" stroke="#F50A81"/>
<path fill-rule="evenodd" clip-rule="evenodd" d="M18.1879 12.4524C17.9719 12.1164 17.718 11.8944 17.739 11.7034C17.761 11.5094 18.054 11.3464 18.228 11.1694C18.416 11.3694 18.7049 11.5474 18.7519 11.7764C18.7829 11.9244 18.4579 12.1454 18.1879 12.4524Z" fill="#F50A81" stroke="#F50A81"/>
<path fill-rule="evenodd" clip-rule="evenodd" d="M25.266 10.9774C25.509 11.3084 25.8169 11.5684 25.7689 11.6954C25.6829 11.9264 25.3849 12.0794 25.1749 12.2644C25.0199 12.0694 24.7469 11.8764 24.7419 11.6774C24.7389 11.4894 25.014 11.2934 25.266 10.9774Z" fill="#F50A81" stroke="#F50A81"/>
<path fill-rule="evenodd" clip-rule="evenodd" d="M18.2629 18.1634C18.0129 17.8604 17.7309 17.6684 17.7379 17.4884C17.7459 17.2984 18.0649 16.9464 18.1849 16.9714C18.4159 17.0194 18.692 17.2484 18.775 17.4684C18.82 17.5894 18.5089 17.8444 18.2629 18.1634Z" fill="#F50A81" stroke="#F50A81"/>
<path fill-rule="evenodd" clip-rule="evenodd" d="M12.7809 6.18835C12.4479 6.45535 12.2519 6.73436 12.0699 6.72536C11.8839 6.71636 11.5809 6.42936 11.5719 6.25236C11.5629 6.07536 11.8379 5.75935 12.0199 5.73335C12.2039 5.70635 12.4279 5.96235 12.7809 6.18835Z" fill="#F50A81" stroke="#F50A81"/>
<path fill-rule="evenodd" clip-rule="evenodd" d="M26.7729 17.4984C26.4099 17.7164 26.176 17.9694 25.989 17.9384C25.796 17.9064 25.6459 17.6004 25.4769 17.4144C25.6679 17.2484 25.8559 16.9594 26.0519 16.9524C26.2419 16.9464 26.4419 17.2314 26.7729 17.4984Z" fill="#F50A81" stroke="#F50A81"/>
<path fill-rule="evenodd" clip-rule="evenodd" d="M11.2819 17.4713C10.9049 17.7103 10.6779 17.9683 10.4939 17.9393C10.3039 17.9093 10.1549 17.6053 9.98792 17.4203C10.1749 17.2553 10.3509 16.9783 10.5509 16.9583C10.7289 16.9413 10.9339 17.2123 11.2819 17.4713Z" fill="#F50A81" stroke="#F50A81"/>
</svg>
