<svg width="50" height="18" viewBox="0 0 50 18" fill="none" xmlns="http://www.w3.org/2000/svg">
<path fill-rule="evenodd" clip-rule="evenodd" d="M1.21105 11.9485C1.29505 12.5445 1.386 13.1125 1.45 13.6845C1.473 13.8945 1.45104 14.1135 1.42504 14.3265C1.41004 14.4385 1.30903 14.5415 1.30303 14.6525C1.25003 15.5775 1.22903 16.0225 2.40202 16.0145C5.49102 15.9945 8.57902 15.9945 11.668 15.9935C18.462 15.9925 25.255 15.9955 32.049 15.9965C35.683 15.9965 39.317 15.9955 42.949 15.9955C44.318 15.9955 45.687 15.9985 47.055 15.9965C47.821 15.9955 48.058 15.6895 47.915 14.9015C47.115 14.7035 46.84 14.4605 46.849 13.9565C46.857 13.4715 47.156 13.2185 47.93 13.0525C47.941 12.9585 47.959 12.8585 47.961 12.7575C47.966 12.4945 47.962 12.2325 47.962 11.9505C47.684 11.9505 47.44 11.9505 47.196 11.9505C45.953 11.9515 44.71 11.9605 43.467 11.9515C41.971 11.9405 40.475 11.9185 38.98 11.8945C38.428 11.8855 38.169 11.6815 38.184 11.2935C38.2 10.8905 38.499 10.6625 39.037 10.6625C40.496 10.6615 41.956 10.6665 43.416 10.6655C44.664 10.6645 45.912 10.6545 47.161 10.6535C47.492 10.6535 47.783 10.5955 47.913 10.2415C48.042 9.89151 47.858 9.6495 47.628 9.4215C46.375 8.1735 45.121 6.9255 43.869 5.6765C43.785 5.5935 43.699 5.51151 43.625 5.42051C43.393 5.13851 43.402 4.8375 43.636 4.5795C43.886 4.3015 44.2 4.26751 44.504 4.50651C44.678 4.64251 44.832 4.80351 44.988 4.95951C46.177 6.14651 47.36 7.33951 48.556 8.51951C49.023 8.98051 49.254 9.5105 49.247 10.1755C49.229 11.8565 49.249 13.5375 49.244 15.2175C49.24 16.5025 48.458 17.2865 47.174 17.2865C32.164 17.2895 17.154 17.2895 2.14501 17.2865C0.759006 17.2865 -0.00695244 16.4875 4.75588e-05 15.1065C0.0100476 13.4555 0.0170383 11.8035 0.00303828 10.1525C-0.000961719 9.5225 0.209987 9.0085 0.650988 8.5685C3.07399 6.1545 5.48601 3.7305 7.91301 1.3215C8.80201 0.441501 9.89301 0.00350027 11.145 0.00250027C20.139 -0.000499725 29.133 -0.00150027 38.127 0.00349973C39.326 0.00349973 40.38 0.412504 41.252 1.2465C41.763 1.7355 42.262 2.23751 42.756 2.74251C43.127 3.11951 43.143 3.44751 42.796 3.82651C40.318 6.53351 37.842 9.2415 35.35 11.9345C34.975 12.3395 34.52 12.6725 34.117 13.0255C34.402 13.1335 34.757 13.1705 34.943 13.3665C35.127 13.5605 35.207 13.9145 35.213 14.2005C35.221 14.5695 34.696 14.8945 34.285 14.8315C33.919 14.7745 33.61 14.5735 33.581 14.2035C33.559 13.9165 33.706 13.6165 33.787 13.2845C33.375 13.4635 32.958 13.5905 32.599 13.8115C31.796 14.3075 30.901 14.5545 29.999 14.5515C28.621 14.5465 27.362 14.9185 26.106 15.3985C25.458 15.6455 24.819 15.4505 24.578 14.9085C24.311 14.3085 24.327 13.6585 24.569 13.0595C24.788 12.5225 25.426 12.3225 26.048 12.5285C26.622 12.7185 27.188 12.9305 27.756 13.1335C28.778 13.4985 29.412 13.3645 30.031 12.6485C30.631 11.9555 30.737 11.0125 30.285 10.1725C29.503 8.71951 28.764 7.2385 27.902 5.8335C26.925 4.2405 28.147 2.6205 29.768 2.6505C33.247 2.7155 36.727 2.6705 40.207 2.6705C40.363 2.6705 40.52 2.6705 40.789 2.6705C40.119 1.8165 39.343 1.3935 38.376 1.3135C38.142 1.2935 37.904 1.3035 37.669 1.3035C28.97 1.3035 20.271 1.3135 11.571 1.2915C10.34 1.2885 9.35603 1.6705 8.49303 2.5515C6.24403 4.8465 3.95499 7.10151 1.68199 9.37351C1.60899 9.44651 1.52999 9.5155 1.46599 9.5955C1.11699 10.0355 1.31602 10.6155 1.87602 10.6415C2.98602 10.6935 4.10002 10.6705 5.21202 10.6765C5.47802 10.6775 5.74201 10.6685 6.00701 10.6685C8.24801 10.6675 10.489 10.6675 12.731 10.6675C17.754 10.6675 22.778 10.6675 27.8 10.6675C28.51 10.6675 28.805 10.8545 28.811 11.3065C28.817 11.7585 28.521 11.9525 27.813 11.9525C23.98 11.9535 20.146 11.9585 16.312 11.9515C14.788 11.9485 13.262 11.9075 11.737 11.8995C9.91505 11.8905 8.09304 11.8935 6.27104 11.9015C5.21904 11.9065 4.16704 11.9365 3.11504 11.9495C2.53204 11.9545 1.94805 11.9485 1.21105 11.9485ZM31.537 12.8975C31.904 12.7645 32.272 12.6465 32.629 12.4985C33.042 12.3265 33.2 11.9975 33.218 11.5525C33.256 10.5695 33.056 9.6525 32.577 8.7925C32.168 8.0595 31.771 7.31951 31.366 6.58451C30.91 5.75651 31.157 5.33251 32.103 5.33251C34.476 5.33251 36.848 5.3335 39.221 5.3305C39.379 5.3305 39.595 5.3545 39.688 5.2665C40.084 4.8895 40.445 4.47351 40.867 4.02051C40.711 3.99151 40.656 3.9725 40.602 3.9725C36.932 3.9715 33.263 3.9675 29.593 3.9765C28.928 3.9775 28.668 4.5035 29.004 5.1225C29.707 6.4165 30.382 7.7275 31.132 8.9945C31.855 10.2135 32.13 11.4375 31.509 12.7715C31.5 12.7905 31.52 12.8235 31.537 12.8975ZM34.464 11.0135C35.836 9.50951 37.105 8.11851 38.435 6.65951C36.521 6.65951 34.75 6.65951 32.899 6.65951C33.609 8.05551 34.543 9.30151 34.464 11.0135Z" fill="#F50A81"/>
</svg>
