<svg width="44" height="29" viewBox="0 0 44 29" fill="none" xmlns="http://www.w3.org/2000/svg">
<path d="M43.3729 0.900753C43.3915 0.322629 43.046 -0.00730804 42.4567 0.000122875C41.1206 0.0164709 39.7845 0.00532732 38.4477 0.00532732C33.4073 0.00532732 28.367 0.00532732 23.3258 0.00532732C20.1476 0.00532732 16.9679 0.00532732 13.7883 0.00532732C9.56155 0.00532732 5.33485 0.00532692 1.1074 0.00607001C0.936489 0.00607001 0.762615 0.00532882 0.596162 0.0335663C0.237249 0.0952428 0.00615021 0.367212 0.00392093 0.729097C-0.000537612 1.68694 -0.00202379 2.64478 0.00392093 3.60189C0.0068933 4.04551 0.292983 4.31897 0.737351 4.32566C0.969196 4.32863 1.20029 4.32566 1.44996 4.32566C1.44996 4.44232 1.44996 4.52183 1.44996 4.60134C1.45071 7.98835 1.45074 11.3739 1.45074 14.7601C1.45074 18.9155 1.44999 23.0709 1.45074 27.2262C1.45074 27.5696 1.44923 27.9129 1.46112 28.2554C1.47375 28.5735 1.68107 28.8246 1.9954 28.8826C2.1403 28.9093 2.29712 28.8774 2.44722 28.8796C3.27503 28.8922 4.10204 28.9116 4.92985 28.9183C5.50128 28.9227 5.78073 28.6381 5.78147 28.0726C5.78147 27.3801 5.7822 26.6868 5.7822 25.9942C5.7822 25.1634 5.7807 24.3326 5.7807 23.5019C5.7807 19.1659 5.7807 14.8293 5.7807 10.4933C5.7807 10.3789 5.7807 10.2637 5.7807 10.1322C12.5443 10.1322 19.276 10.1322 26.0247 10.1322C26.0247 10.2763 26.0247 10.393 26.0247 10.5089C26.0247 13.9606 26.024 17.4115 26.0247 20.8617C26.0247 21.4093 26.2878 21.6739 26.8347 21.6739C29.8977 21.6731 32.96 21.6716 36.0223 21.6694C36.5343 21.6694 37.0478 21.6694 37.5858 21.6694C37.5858 21.8292 37.5858 21.9533 37.5858 22.0774C37.5858 24.0785 37.585 26.0782 37.5858 28.0793C37.5858 28.6099 37.8607 28.9153 38.3623 28.919C39.283 28.9257 40.2051 28.9264 41.1266 28.919C41.6408 28.9153 41.9076 28.6344 41.9076 28.1276C41.9068 26.1941 41.9038 24.2606 41.9038 22.3278C41.9038 16.9433 41.9046 11.5589 41.9046 6.17521C41.9046 5.57108 41.9046 4.96769 41.9046 4.32789C42.1536 4.32789 42.3601 4.32863 42.5674 4.32789C43.098 4.32417 43.3647 4.05889 43.3655 3.53055C43.3662 2.65296 43.3447 1.77611 43.3729 0.900753ZM4.40006 27.762C4.18828 27.4284 3.85464 27.4722 3.53288 27.4781C3.3263 27.4819 3.11894 27.4789 2.88412 27.4789C2.88412 19.7641 2.88412 12.0672 2.88412 4.33755C3.37085 4.33755 3.83606 4.33755 4.33987 4.33755C4.33987 4.44084 4.33987 4.53595 4.33987 4.63181C4.33987 6.94357 4.33987 9.25533 4.33987 11.5671C4.33987 16.5421 4.34058 21.5178 4.33761 26.4928C4.33761 26.8302 4.29673 27.1675 4.29896 27.5049C4.29896 27.5837 4.39408 27.6617 4.44609 27.7419C4.42677 27.7509 4.40155 27.7635 4.40006 27.762ZM26.0114 8.67125C19.2738 8.67125 12.5421 8.67125 5.78369 8.67125C5.78369 7.21777 5.78369 5.79252 5.78369 4.34572C12.528 4.34572 19.2604 4.34572 26.0114 4.34572C26.0114 5.78063 26.0114 7.21182 26.0114 8.67125ZM40.4652 27.4692C39.9859 27.4692 39.5274 27.4692 39.0459 27.4692C39.0459 25.5469 39.0459 23.6297 39.0459 21.6939C39.5103 21.6939 39.9763 21.6939 40.4652 21.6939C40.4652 23.6044 40.4652 25.5216 40.4652 27.4692ZM40.4697 20.2397C36.1434 20.2397 31.8216 20.2397 27.4842 20.2397C27.4842 17.8284 27.4842 15.4319 27.4842 13.0094C31.8105 13.0094 36.1308 13.0094 40.4697 13.0094C40.4697 15.4222 40.4697 17.8194 40.4697 20.2397ZM40.4741 11.5701C36.1531 11.5701 31.8268 11.5701 27.4775 11.5701C27.4775 9.14684 27.4775 6.75557 27.4775 4.34349C31.809 4.34349 36.13 4.34349 40.4741 4.34349C40.4741 6.73847 40.4741 9.13569 40.4741 11.5701ZM41.9016 2.88703C28.4286 2.88703 14.9512 2.88703 1.45813 2.88703C1.45813 2.41294 1.45813 1.94777 1.45813 1.46253C14.9378 1.46253 28.4101 1.46253 41.9016 1.46253C41.9016 1.93142 41.9016 2.39585 41.9016 2.88703Z" fill="#F50A81"/>
</svg>
