<svg width="34" height="33" viewBox="0 0 34 33" fill="none" xmlns="http://www.w3.org/2000/svg">
<path fill-rule="evenodd" clip-rule="evenodd" d="M5.27864 16.9267C5.27864 17.0019 5.27864 17.0625 5.27864 17.1246C5.27864 19.1969 5.27864 21.2692 5.27864 23.3415C5.27864 26.0009 5.27718 28.6603 5.27864 31.3198C5.27864 31.6622 5.15523 31.9317 4.83613 32.0821C4.7558 32.1201 4.65652 32.1347 4.56524 32.1347C3.88688 32.139 3.20854 32.1193 2.53164 32.1442C2.13003 32.1588 1.7452 31.8455 1.74666 31.3541C1.74958 30.3807 1.74591 29.4066 1.74737 28.434C1.75029 27.335 1.75905 26.2368 1.75905 25.1371C1.75686 22.4638 1.75177 19.7891 1.74666 17.1151C1.74666 17.0537 1.74153 16.9931 1.73788 16.9143C1.47793 16.9143 1.22821 16.915 0.978481 16.9135C0.554232 16.9121 0.240984 16.6047 0.240254 16.1819C0.237333 15.2655 0.236565 14.3483 0.238025 13.4304C0.238025 13.0405 0.549819 12.736 0.94559 12.736C3.21872 12.736 5.4926 12.7353 7.76573 12.7375C7.89278 12.7375 7.99064 12.7316 8.04103 12.5819C8.23891 12.0014 8.44994 11.4253 8.65148 10.8463C8.68215 10.7594 8.69308 10.6652 8.71864 10.5476C8.63905 10.5381 8.56165 10.5228 8.48644 10.5228C7.29328 10.5228 6.10013 10.5264 4.9077 10.5272C4.67477 10.5272 4.44693 10.5096 4.25999 10.3344C4.09059 10.173 4.00956 9.98023 4.01175 9.75241C4.01467 9.33911 4.03219 8.92582 4.03073 8.51179C4.02635 6.21456 4.01758 3.91733 4.01028 1.62011C4.00955 1.27253 4.1293 0.995784 4.463 0.846822C4.53967 0.813233 4.63095 0.794248 4.71566 0.794248C7.51454 0.792058 10.3141 0.792783 13.113 0.792783C14.3938 0.792783 15.6746 0.792053 16.9554 0.792053C17.3716 0.792053 17.679 1.09655 17.679 1.51131C17.679 4.2744 17.679 7.0375 17.6783 9.8006C17.6783 10.1971 17.4088 10.5031 17.0116 10.5074C15.7491 10.5228 14.488 10.5213 13.2255 10.5257C13.1576 10.5264 13.0904 10.5257 12.9823 10.5257C13.0378 10.7696 13.0663 10.9923 13.1393 11.1982C13.3095 11.6794 13.4971 12.1541 13.6921 12.6258C13.7147 12.682 13.8257 12.7309 13.8973 12.7316C14.4303 12.7411 14.9641 12.7368 15.4979 12.7368C16.7538 12.7368 18.0091 12.7368 19.2657 12.7368C19.3329 12.7368 19.4023 12.7368 19.4855 12.7368C19.4892 12.6637 19.495 12.6031 19.495 12.5433C19.4957 12.0409 19.495 11.5392 19.495 11.0361C19.4957 10.4892 19.7944 10.1861 20.3348 10.184C20.472 10.1832 20.6093 10.184 20.7736 10.184C20.7736 9.95759 20.7736 9.74657 20.7736 9.53554C20.7736 9.32889 20.7736 9.12297 20.7736 8.88419C20.6225 8.88419 20.4815 8.88492 20.3399 8.88419C19.809 8.88273 19.4972 8.57532 19.4958 8.04884C19.4943 7.35149 19.5038 6.65415 19.4935 5.95753C19.4848 5.40842 19.8776 5.11341 20.3275 5.11779C22.3187 5.13605 24.3085 5.13313 26.2998 5.11925C26.6817 5.1156 27.0782 5.44347 27.0658 5.8867C27.049 6.46429 27.0614 7.04189 27.0614 7.65015C27.2396 7.65015 27.4127 7.64942 27.585 7.65015C27.9954 7.6538 28.34 7.99188 28.3414 8.39714C28.3429 9.14414 28.3444 9.89114 28.3414 10.6381C28.34 11.0945 28.0304 11.4041 27.5762 11.4114C27.4134 11.4136 27.2513 11.4114 27.0745 11.4114C27.0745 11.8525 27.0745 12.2818 27.0745 12.736C27.1468 12.736 27.2192 12.736 27.2922 12.736C29.2769 12.736 31.2608 12.7448 33.2455 12.7287C33.6259 12.7258 34.01 13.0683 33.9998 13.4845C33.9808 14.3571 33.9947 15.2304 33.9969 16.103C33.9976 16.6127 33.7939 16.8449 33.2389 16.9362C33.2389 17.0128 33.2389 17.0924 33.2389 17.1735C33.2389 21.9016 33.2389 26.6304 33.2389 31.3592C33.2389 31.7352 33.0513 32.0069 32.7132 32.1106C32.638 32.1339 32.5533 32.1354 32.4737 32.1354C29.4915 32.1361 26.5086 32.1354 23.5265 32.1354C23.2256 32.1354 22.9226 32.1201 22.6232 32.139C22.1887 32.1668 21.8762 31.8112 21.8675 31.384C21.8609 31.1014 21.8653 30.8196 21.8653 30.5362C21.8653 26.0718 21.8667 21.6066 21.8667 17.1414C21.8667 17.0734 21.8667 17.0048 21.8667 16.9252C16.3361 16.9267 10.8216 16.9267 5.27864 16.9267ZM5.24727 9.30917C5.30934 9.30917 5.35166 9.30917 5.39474 9.30917C9.0224 9.30917 12.6508 9.30771 16.2785 9.31283C16.4632 9.31283 16.4815 9.22447 16.4778 9.08281C16.4705 8.75349 16.4661 8.4227 16.4669 8.09338C16.4676 6.12839 16.469 4.16414 16.4756 2.19989C16.4763 2.03413 16.4311 1.99033 16.2653 1.99033C12.6559 1.99544 9.04652 1.99397 5.43784 1.9947C5.37796 1.9947 5.31661 1.99982 5.24651 2.00347C5.24724 4.4387 5.24727 6.85933 5.24727 9.30917ZM32.7921 13.9518C22.329 13.9518 11.8899 13.9518 1.43851 13.9518C1.43851 14.4725 1.44727 14.9799 1.43486 15.4874C1.43048 15.6678 1.48085 15.7182 1.66341 15.7182C5.36044 15.7131 9.05821 15.716 12.7545 15.716C16.0507 15.7153 19.3446 15.7116 22.6408 15.7109C25.9493 15.7109 29.2586 15.7131 32.5679 15.7138C32.6059 15.7138 32.6504 15.7269 32.6789 15.7109C32.7227 15.6861 32.787 15.64 32.7877 15.6021C32.7943 15.0559 32.7921 14.5104 32.7921 13.9518ZM32.0056 30.9298C32.0093 30.8546 32.0151 30.7998 32.0151 30.7443C32.0158 28.7399 32.0144 26.7348 32.0202 24.7296C32.021 24.561 31.9684 24.523 31.8063 24.523C28.9672 24.5281 26.1289 24.5266 23.2914 24.5266C23.23 24.5266 23.1694 24.5266 23.1008 24.5266C23.1008 26.6742 23.1008 28.7991 23.1008 30.9306C26.0712 30.9298 29.0264 30.9298 32.0056 30.9298ZM32.0122 16.9245C29.0286 16.9245 26.0691 16.9245 23.0971 16.9245C23.0971 19.0567 23.0971 21.1838 23.0971 23.3138C26.0815 23.3138 29.0468 23.3138 32.0122 23.3138C32.0122 21.1794 32.0122 19.0574 32.0122 16.9245ZM4.03586 30.9298C4.03586 26.2499 4.03586 21.589 4.03586 16.9289C3.67514 16.9289 3.33337 16.9289 2.98579 16.9289C2.98579 21.6022 2.98579 26.2631 2.98579 30.9298C3.34432 30.9298 3.68025 30.9298 4.03586 30.9298ZM20.7349 7.63773C22.4531 7.63773 24.1501 7.63773 25.8573 7.63773C25.8573 7.25948 25.8485 6.89658 25.8617 6.53366C25.8675 6.36499 25.8149 6.32336 25.6506 6.32409C24.0749 6.3292 22.4991 6.32774 20.9233 6.32774C20.8627 6.32774 20.8021 6.33358 20.7349 6.3365C20.7349 6.77682 20.7349 7.2018 20.7349 7.63773ZM25.858 11.4253C24.1369 11.4253 22.4385 11.4253 20.7422 11.4253C20.7422 11.8678 20.7422 12.2972 20.7422 12.7302C20.7875 12.7338 20.8174 12.7368 20.8488 12.7368C22.4618 12.7368 24.0756 12.7368 25.6886 12.7368C25.7076 12.7368 25.7332 12.7448 25.7434 12.7353C25.785 12.7017 25.8515 12.6637 25.8529 12.6258C25.861 12.2322 25.858 11.8371 25.858 11.4253ZM21.9821 10.1715C23.6995 10.1715 25.3958 10.1715 27.1118 10.1715C27.1118 9.73561 27.1118 9.31137 27.1118 8.89661C25.3922 8.89661 23.69 8.89661 21.9821 8.89661C21.9821 9.32743 21.9821 9.73853 21.9821 10.1715ZM9.30502 12.7236C10.347 12.7236 11.3693 12.7236 12.4157 12.7236C12.1068 12.0124 11.8498 11.3077 11.757 10.5586C11.7388 10.5491 11.7278 10.5396 11.7169 10.5396C11.1641 10.5352 10.6128 10.5337 10.0608 10.5293C9.9286 10.5279 9.94026 10.633 9.91908 10.7104C9.80663 11.1288 9.70587 11.5494 9.58246 11.9657C9.50725 12.2183 9.40068 12.4629 9.30502 12.7236Z" fill="#F50A81"/>
</svg>
