<svg width="38" height="33" viewBox="0 0 38 33" fill="none" xmlns="http://www.w3.org/2000/svg">
<path fill-rule="evenodd" clip-rule="evenodd" d="M12.6142 7.53353C12.8518 5.8926 13.9142 4.34048 13.339 2.43394C13.0599 1.50775 13.4955 0.532489 14.5131 0.118025C15.4756 -0.2736 15.9687 0.375165 16.4458 1.09921C16.6327 1.37918 17.0548 1.61347 17.3991 1.66084C22.9563 2.43394 28.401 3.66211 33.6807 5.5881C33.9616 5.69044 34.3354 5.53819 34.6661 5.50097C35.3183 5.42823 36.3122 5.05944 36.549 5.33772C37.032 5.90528 37.5539 7.11146 37.2713 7.54284C35.7962 9.80885 36.6023 12.3582 36.1058 14.7224C35.3885 18.1311 34.7516 21.5568 34.1147 24.9799C34.0157 25.5187 34.1451 26.0981 34.0749 26.6471C33.9709 27.4591 33.9708 28.3717 33.5826 29.0408C33.0446 29.9628 31.7903 29.8833 31.265 28.9165C30.8565 28.1637 30.3278 27.9936 29.5758 27.9015C27.9442 27.7001 26.3219 27.4092 24.368 27.1038C24.5202 28.1205 24.6776 28.9173 24.7461 29.7208C24.8053 30.4517 24.9567 31.2544 24.7317 31.9107C24.3384 33.0619 23.0053 33.2793 22.2762 32.3057C21.756 31.6113 21.2147 31.52 20.461 31.5445C15.0679 31.717 9.71966 31.3204 4.41876 30.2749C4.06266 30.2038 3.63807 30.4627 3.24813 30.5785C2.69495 30.7426 2.01573 31.1977 1.62495 31.0184C1.1166 30.7841 0.778245 30.0812 0.484737 29.5187C0.339252 29.2362 0.324861 28.7329 0.483034 28.4715C1.31281 27.1047 0.83068 25.682 0.698728 24.3007C0.272423 19.8186 0.310488 15.355 0.954174 10.8958C1.01169 10.4889 0.803614 10.0448 0.731717 9.61601C0.632753 9.00954 0.355336 8.34724 0.508434 7.80928C0.667452 7.25018 1.16228 6.61918 1.6757 6.38826C2.03603 6.2284 2.68563 6.66147 3.18045 6.88646C3.55262 7.05563 3.88336 7.49801 4.23946 7.50478C6.9673 7.55722 9.696 7.53353 12.6142 7.53353ZM2.09269 7.73654C1.98442 7.78814 1.87872 7.83889 1.77214 7.88879C1.83727 8.26688 1.90071 8.64582 1.96584 9.02222C2.08426 9.70397 2.30925 10.3857 2.30079 11.0658C2.24581 15.3576 2.15528 19.6485 2.04194 23.9387C2.00049 25.5432 2.94194 27.1901 1.82965 28.7651C1.70785 28.9359 1.88549 29.3165 1.97007 29.9239C2.79985 28.5062 3.80978 28.76 4.8933 28.968C9.88378 29.9264 14.9241 30.3502 20.0094 30.2233C21.295 30.1903 22.7474 29.7022 23.5061 31.5115C23.5932 30.9896 23.567 30.6479 23.5281 30.307C23.4114 29.3208 23.0865 28.3108 23.2041 27.3559C23.7759 22.7917 23.7911 18.2419 23.1973 13.6811C23.0637 12.6467 22.7346 11.5758 23.5297 10.5879C23.7023 10.3722 23.5027 9.85538 23.4731 9.47729C22.7305 10.4703 21.9945 10.4796 20.9837 10.2791C15.6025 9.21761 10.1629 8.70672 4.67508 8.91226C3.60509 8.95371 2.62811 8.95117 2.09269 7.73654ZM14.1967 7.82535C14.4708 7.87864 14.8971 7.97676 15.3268 8.04019C16.9186 8.27111 18.5156 8.46143 20.1016 8.72618C20.9795 8.8742 21.7383 9.09412 22.5511 8.30833C22.8421 8.02751 24.2217 8.26942 24.4382 8.65174C24.8265 9.33603 24.7799 10.3054 24.7875 11.1563C24.7926 11.8871 24.5185 12.6221 24.5405 13.3496C24.6437 16.6602 24.8247 19.9674 24.9364 23.2772C24.9618 24.0647 24.8231 24.8581 24.7512 25.7437C26.5283 26.0406 28.1878 26.4229 29.8668 26.5642C31.062 26.6648 32.0542 26.8441 32.5405 28.1789C32.6649 27.6722 32.6716 27.229 32.664 26.7849C32.6539 26.2258 32.4805 25.6227 32.6353 25.1169C34.1299 20.2 34.9393 15.185 35.0569 10.0457C35.0747 9.26159 35.5374 8.49188 35.7691 7.70778C35.8799 7.33392 35.9307 6.94229 36.0102 6.55912C34.9791 7.49124 34.0884 7.21212 33.0506 6.83656C28.1574 5.06367 23.1356 3.79237 17.9582 3.16221C16.7774 3.01842 15.4376 3.13515 15.057 1.6194C14.7702 3.69002 14.4911 5.69383 14.1967 7.82535Z" fill="#F50A81"/>
</svg>
