<svg width="41" height="34" viewBox="0 0 41 34" fill="none" xmlns="http://www.w3.org/2000/svg">
<path fill-rule="evenodd" clip-rule="evenodd" d="M3.88524 1.37931C8.44158 3.02136 13.173 0.947389 17.9542 1.00103C21.5169 1.04055 25.0823 1.27486 28.6346 1.57222C31.2807 1.79429 33.8553 2.31467 36.5391 1.50353C38.8568 0.80436 39.8297 1.90345 39.0496 4.24561C38.1284 7.01028 39.028 9.61968 39.3846 12.278C39.9135 16.2076 39.8043 20.1128 39.0054 23.9832C38.5697 26.0976 38.517 28.1273 39.1861 30.2192C39.7328 31.9375 38.9057 33.0469 37.2618 32.567C32.6941 31.2317 28.2808 32.9283 23.8006 32.9001C19.9397 32.8756 16.0769 32.6649 12.2226 32.407C9.62823 32.2339 7.09689 31.6693 4.46113 32.4889C2.11992 33.2163 1.15729 32.1511 1.84799 29.8258C2.39565 27.9787 2.3458 26.1851 1.97222 24.3247C1.05098 19.7439 0.905111 15.1443 1.84517 10.5409C2.31097 8.25522 2.5086 6.00905 1.72192 3.70453C1.18084 2.10953 1.96653 1.28615 3.88524 1.37931ZM2.84545 31.5884C3.21432 31.5884 3.43168 31.6429 3.60576 31.5799C6.40902 30.5655 9.23581 30.9212 12.0936 31.3089C16.5324 31.913 20.9748 32.2452 25.4691 31.7079C29.5276 31.2232 33.6078 30.2098 37.6965 31.5949C37.7652 31.6185 37.8743 31.5263 38.1265 31.419C38.103 31.0031 38.0682 30.5222 38.0494 30.0423C37.9741 28.165 37.6052 26.2406 37.8865 24.4189C38.5509 20.1138 38.9188 15.8378 38.1462 11.5243C37.6682 8.85182 37.0415 6.19348 38.119 3.51068C38.2309 3.22932 38.0879 2.84539 38.056 2.41253C37.6269 2.45017 37.2692 2.40877 36.9625 2.51792C34.3992 3.42787 31.8114 3.1117 29.2152 2.73624C23.9174 1.97026 18.627 1.73595 13.2963 2.55086C10.0846 3.04301 6.82499 3.6396 3.60864 2.42759C3.40914 2.35231 3.14283 2.45394 2.78807 2.48311C2.81348 3.0129 2.72597 3.49374 2.87842 3.87861C3.69615 5.94694 3.46465 8.03315 3.03837 10.1147C2.2037 14.1977 2.0522 18.2929 2.78336 22.4004C3.26986 25.1265 3.85234 27.8356 2.80312 30.5655C2.70432 30.8149 2.8191 31.1433 2.84545 31.5884Z" fill="#F50A81" stroke="#F50A81"/>
</svg>
