<svg width="56" height="25" viewBox="0 0 56 25" fill="none" xmlns="http://www.w3.org/2000/svg">
<path fill-rule="evenodd" clip-rule="evenodd" d="M8.88199 19.4222C8.2153 19.3692 7.56781 19.3861 6.95138 19.2545C5.6308 18.9716 4.70547 18.1542 4.23116 16.8934C3.15321 14.0283 2.10725 11.1514 1.04987 8.27854C0.91781 7.91938 1.05444 7.60865 1.3839 7.60865C2.24936 7.6082 3.12031 7.59495 3.97801 7.68953C4.73335 7.7727 5.37765 8.17619 5.98539 8.76976C5.98539 8.58424 5.98494 8.46315 5.98539 8.3416C5.9927 7.32535 5.96437 6.30681 6.01601 5.29283C6.12111 3.22833 7.92194 1.32696 9.97228 1.07153C10.2876 1.03223 10.607 1.01212 10.9246 1.01167C14.6825 1.00755 18.4405 1.00573 22.1984 1.0103C24.8172 1.01349 26.6953 2.20568 27.8418 4.55714C27.8541 4.58228 27.8719 4.60421 27.9071 4.65813C27.9478 4.58182 27.9793 4.52653 28.0077 4.46941C29.1281 2.23401 30.9335 1.03817 33.4367 1.01761C37.3038 0.985619 41.1719 1.00618 45.0396 1.0103C47.4509 1.01258 49.4085 2.68593 49.7754 5.06253C49.8266 5.39519 49.8174 5.73836 49.8197 6.07696C49.8256 6.95111 49.8215 7.82479 49.8215 8.76337C50.4233 8.18441 51.0722 7.79006 51.8344 7.68359C52.4618 7.59632 53.1047 7.61962 53.7412 7.59769C53.9204 7.59129 54.1 7.59449 54.2795 7.59723C54.7342 7.60409 54.9124 7.85587 54.7552 8.28448C54.1699 9.88015 53.5804 11.474 52.9928 13.0688C52.5427 14.2906 52.0908 15.5116 51.6425 16.7339C51.0297 18.4064 49.6547 19.3706 47.8754 19.3719C47.5669 19.3719 47.258 19.3719 46.9007 19.3719C46.9802 19.5405 47.0433 19.6813 47.1118 19.8197C47.7127 21.0316 48.3173 22.242 48.9159 23.4557C49.158 23.9465 48.983 24.2179 48.4338 24.2192C47.9453 24.2202 47.4564 24.2078 46.9688 24.2243C46.7115 24.233 46.5374 24.1375 46.383 23.9423C45.2571 22.5208 44.122 21.1065 43.0002 19.6822C42.827 19.4624 42.6529 19.3642 42.3582 19.3642C32.7092 19.3737 23.0602 19.3733 13.4113 19.366C13.1549 19.366 12.9941 19.4414 12.8378 19.6397C11.7155 21.064 10.5805 22.4774 9.45684 23.9008C9.28275 24.1215 9.09493 24.2384 8.80111 24.2252C8.30349 24.2033 7.80451 24.222 7.30643 24.2183C6.84491 24.2151 6.65893 23.92 6.86502 23.5018C7.49378 22.226 8.12986 20.9534 8.76228 19.6794C8.80569 19.5931 8.84407 19.504 8.88199 19.4222ZM47.444 14.2788C47.9412 12.9308 48.4374 11.5901 48.9282 10.2471C48.9611 10.1575 48.9561 10.0511 48.9561 9.95235C48.9574 8.54723 48.962 7.14211 48.9529 5.73699C48.951 5.46053 48.9223 5.17814 48.8606 4.90899C48.4365 3.05789 46.9021 1.87028 44.9189 1.86708C41.1322 1.86114 37.3454 1.86114 33.5587 1.87119C33.1337 1.8721 32.6987 1.91003 32.2856 2.00645C29.9177 2.55981 28.3348 4.57359 28.333 7.00457C28.3312 9.25688 28.3325 11.5087 28.3325 13.761C28.3325 13.8561 28.3325 13.9516 28.3325 14.0553C28.8224 13.8853 29.2716 13.6998 29.7367 13.5728C31.9127 12.9792 34.1468 12.8211 36.3867 12.7439C38.5897 12.6676 40.7904 12.7507 42.9764 13.0418C44.5131 13.2483 46.0526 13.469 47.444 14.2788ZM27.4621 14.09C27.4689 13.9923 27.4748 13.9429 27.4748 13.894C27.4753 11.5421 27.4808 9.19016 27.4689 6.83824C27.4671 6.48365 27.4127 6.12219 27.3304 5.77583C26.7789 3.45132 24.8031 1.88855 22.3214 1.87256C18.4848 1.84834 14.6478 1.84971 10.8112 1.8721C8.47896 1.88581 6.85085 3.57379 6.85085 5.90423C6.85085 7.24949 6.84811 8.59475 6.85451 9.94002C6.85497 10.0949 6.88329 10.2581 6.93584 10.4038C7.28632 11.3758 7.6464 12.3445 8.00465 13.3137C8.12346 13.6345 8.24592 13.9539 8.37295 14.2902C9.05289 13.8524 9.78173 13.624 10.5298 13.4521C12.8515 12.9189 15.213 12.7653 17.5855 12.7302C19.6605 12.6995 21.7278 12.8133 23.7822 13.1048C25.0315 13.2821 26.2712 13.5161 27.4621 14.09ZM2.04922 8.44899C2.09766 8.59932 2.11959 8.67472 2.14655 8.74829C3.07782 11.2752 4.0068 13.8031 4.94217 16.3286C5.49508 17.8229 6.48529 18.5078 8.07365 18.5078C21.1703 18.5078 34.2674 18.5078 47.3641 18.5078C47.5436 18.5078 47.7232 18.5119 47.9023 18.5069C49.3449 18.4667 50.3274 17.7685 50.8264 16.4214C51.5442 14.483 52.258 12.5433 52.9736 10.6044C53.2308 9.90757 53.4886 9.21072 53.7591 8.47732C53.362 8.47732 53.0051 8.47686 52.6482 8.47732C51.2989 8.48097 50.252 9.2025 49.7827 10.4628C49.2101 11.999 48.6444 13.5385 48.0755 15.0766C47.8726 15.6249 47.8384 15.6469 47.2558 15.6469C34.3282 15.6469 21.4006 15.6469 8.47348 15.6473C7.99917 15.6473 7.9192 15.5925 7.75379 15.1433C7.173 13.5673 6.60227 11.9876 6.00823 10.4166C5.6244 9.40173 4.891 8.74189 3.82082 8.54769C3.25923 8.44579 2.67342 8.47915 2.04922 8.44899ZM26.7593 14.7622C26.762 14.743 26.7647 14.7234 26.7675 14.7037C26.6016 14.6448 26.4371 14.579 26.2685 14.5273C24.2721 13.9223 22.2144 13.6989 20.1444 13.6454C18.3943 13.6002 16.6396 13.6317 14.89 13.7067C13.3295 13.7734 11.7813 13.9954 10.2688 14.4108C9.96177 14.4953 9.66156 14.6055 9.35814 14.7037C9.36408 14.7234 9.37002 14.7426 9.37596 14.7622C15.1705 14.7622 20.9651 14.7622 26.7593 14.7622ZM46.4314 14.7622C46.4342 14.7421 46.4365 14.722 46.4392 14.7019C46.2057 14.6238 45.9749 14.536 45.7382 14.4679C43.8222 13.9187 41.8532 13.7354 39.8737 13.6354C37.8919 13.5348 35.9115 13.5751 33.9338 13.7492C32.4958 13.8753 31.0697 14.0768 29.6792 14.4803C29.4589 14.5442 29.2464 14.6343 29.0303 14.7119C29.0362 14.7284 29.0417 14.7453 29.0477 14.7622C34.8427 14.7622 40.6373 14.7622 46.4314 14.7622ZM7.9055 23.3634C8.07045 23.3634 8.17235 23.3492 8.26877 23.3657C8.6357 23.4283 8.86326 23.2674 9.08671 22.9782C9.94989 21.8596 10.8414 20.7629 11.7219 19.658C11.7859 19.5776 11.8458 19.4944 11.9376 19.3724C11.2874 19.3724 10.7007 19.3797 10.1148 19.3683C9.93709 19.3646 9.85165 19.4295 9.77671 19.5844C9.37779 20.4065 8.96745 21.2235 8.56122 22.0423C8.35056 22.4659 8.14037 22.8904 7.9055 23.3634ZM43.9127 19.3724C43.9237 19.4281 43.9228 19.4391 43.9278 19.4459C44.9294 20.709 45.9306 21.972 46.9368 23.2309C46.9862 23.2926 47.0785 23.3506 47.1543 23.3556C47.3869 23.3721 47.6218 23.3616 47.8452 23.3616C47.8562 23.314 47.8631 23.3026 47.8594 23.2962C47.2357 22.0314 46.6124 20.7661 45.9813 19.5049C45.9503 19.4428 45.8488 19.3792 45.7794 19.3783C45.1638 19.3687 44.5483 19.3724 43.9127 19.3724Z" fill="#F50A81" stroke="#F50A81"/>
</svg>
