<svg width="44" height="37" viewBox="0 0 44 37" fill="none" xmlns="http://www.w3.org/2000/svg">
<path d="M43.9048 14.4734C43.9098 13.9002 43.9141 13.3083 43.891 12.7228C43.8808 12.4913 43.8179 11.7133 43.3895 11.434C42.0579 10.567 40.683 9.79342 39.3558 9.04587C39.2819 9.0039 39.1936 8.98363 39.093 8.98363C38.8875 8.98363 38.5395 9.08422 38.4114 9.30711C38.258 9.56691 38.3831 10.0286 38.593 10.2254C38.7884 10.4064 39.0135 10.5308 39.2313 10.6517C39.3051 10.6922 39.3774 10.732 39.4491 10.7747L42.3257 12.4826C41.7996 12.7872 41.2836 13.0839 40.7749 13.3763C39.2038 14.2809 37.7203 15.1348 36.2505 16.0249C35.4407 16.5156 34.7503 16.5112 33.8841 16.0032C32.6191 15.2629 31.3491 14.5335 30.0776 13.804C28.3994 12.8408 26.6633 11.8443 24.9721 10.8377C23.6007 10.0199 22.3227 10.0315 20.8703 10.8869C19.1386 11.9073 17.3989 12.9117 15.6592 13.9169C13.8109 14.9843 11.9634 16.051 10.126 17.1365C9.21058 17.6756 8.49125 17.6785 7.68218 17.1437C7.37752 16.9425 7.05619 16.7696 6.74429 16.6017C6.55831 16.5011 6.37163 16.4012 6.18926 16.2949C5.11534 15.6718 4.04213 15.0458 2.93275 14.3981L1.63956 13.6433C1.78357 13.5377 1.90368 13.453 2.03033 13.3792L8.18297 9.79849C12.7124 7.16361 17.2426 4.52872 21.7662 1.88226C22.5695 1.41188 23.2469 1.41115 24.0451 1.87937C26.1112 3.09152 28.1873 4.29064 30.2621 5.48903L32.3166 6.67657L32.4404 6.75328C32.5988 6.85387 32.7776 6.96821 32.994 6.99644C33.0287 7.00078 33.0656 7.00295 33.104 7.00295C33.3008 7.00295 33.7097 6.92986 33.8399 6.65486C33.9782 6.36612 33.8204 5.95363 33.6503 5.76547C33.4969 5.59758 33.2972 5.4941 33.1214 5.40364C33.0642 5.37397 33.007 5.3443 32.952 5.31318L24.5856 0.473278C23.4705 -0.172959 22.3061 -0.157041 21.1547 0.518867C19.7515 1.3453 18.3433 2.16232 16.9343 2.98151L13.4375 5.01358C9.36978 7.37854 5.30129 9.74349 1.22269 12.0903C0.321722 12.6085 -0.0531067 13.2786 0.00768152 14.2621C0.0677461 15.2441 0.0677359 16.2326 0.00622393 17.2002C-0.0712087 18.4463 0.588787 18.9862 1.15542 19.2199C1.74738 19.4638 1.84436 19.8199 1.83929 20.5254C1.81975 22.7869 1.81541 25.0484 1.81107 27.3106C1.80673 29.6929 1.80238 32.0752 1.77922 34.4568C1.76909 35.564 2.21704 36.2161 3.18893 36.5077C3.53557 36.6119 3.86915 36.664 4.18323 36.664C5.52708 36.664 6.39768 35.6856 6.3984 34.1717L6.39982 31.1417C6.40126 28.3577 6.40275 25.5745 6.40781 22.7905C6.40781 22.6292 6.42298 22.4678 6.44107 22.2876C6.52212 22.3317 6.59379 22.3715 6.66037 22.4186C8.09613 23.4093 9.60499 23.4042 11.1623 22.3932C12.0271 21.8331 12.9411 21.3084 13.8247 20.8012L14.5295 20.3959C15.4942 19.8372 16.4625 19.2858 17.4698 18.7126L18.3643 18.2025L18.3636 21.0834C18.3621 23.6047 18.3614 26.0572 18.365 28.5097C18.3686 30.0156 19.1285 30.7791 20.6236 30.7791L20.7133 30.7784C22.2439 30.7509 22.9892 30.0193 22.9928 28.5415C23.0023 25.4507 23.0066 22.3614 23.0102 19.272L23.0138 15.7384C23.0688 15.7586 23.1224 15.7782 23.1752 15.7977C23.5002 15.9178 23.7585 16.0126 23.9872 16.1422L24.472 16.4157C26.6763 17.6619 28.9552 18.95 31.1696 20.2613C31.3426 20.3641 31.5163 20.4697 31.6892 20.5746C32.7935 21.2477 33.9355 21.9431 35.2041 21.9431C36.003 21.9431 36.7701 21.6696 37.5343 21.1109L37.527 25.7872C37.5205 28.6486 37.5147 31.51 37.5133 34.3714C37.5126 35.1385 37.6993 35.6914 38.0806 36.0619C38.4591 36.4281 39.0236 36.6061 39.8051 36.6061H39.8703C41.4204 36.588 42.0847 35.9143 42.089 34.354L42.1006 31.2784C42.1158 27.2339 42.1325 23.1885 42.1202 19.1432C42.1187 18.5513 42.2671 18.2886 42.7085 18.1026C43.5451 17.7509 43.9525 17.0851 43.9185 16.1241C43.8961 15.5763 43.9004 15.0248 43.9048 14.4734ZM4.89387 32.2807L4.91197 34.1065C4.91559 34.5429 4.85337 34.81 4.71732 34.9475C4.59864 35.0676 4.38658 35.1262 4.05297 35.1262C3.75265 35.124 3.55291 35.0676 3.44074 34.9554C3.31265 34.8252 3.25695 34.5784 3.26057 34.1565C3.28807 31.2415 3.29385 28.3259 3.29891 25.4102C3.30253 23.9708 3.3047 22.5315 3.31048 21.0928C3.31121 20.9046 3.33146 20.7165 3.35607 20.5074C4.58703 20.9908 5.02846 21.7709 4.96189 23.2602C4.82584 26.2641 4.86058 29.3224 4.89387 32.2807ZM16.5442 17.5085C14.4289 18.7358 12.3151 19.9624 10.2143 21.2115C9.25039 21.7832 8.47603 21.7861 7.55842 21.2245C5.65228 20.0594 3.96108 19.0846 2.39 18.2466C1.63449 17.8428 1.40074 17.4498 1.49844 16.7457C1.55344 16.3484 1.54258 15.9562 1.52883 15.5017C1.52666 15.4511 1.52592 15.3997 1.52375 15.3476L2.35453 15.8194C3.20556 16.3021 4.01678 16.7631 4.82801 17.2262C4.9684 17.3066 5.11243 17.384 5.25499 17.4614C5.61393 17.6554 5.95188 17.8377 6.2522 18.0686C7.06995 18.6982 7.89278 19.0036 8.76915 19.0036C9.66215 19.0036 10.5906 18.688 11.6899 18.0114C13.5114 16.8912 15.3965 15.802 17.2187 14.7484C18.6501 13.9212 20.1286 13.0673 21.5694 12.2011C22.5659 11.6048 23.3489 11.5983 24.315 12.1743C25.7877 13.0507 27.2741 13.9039 28.7605 14.7571C30.1919 15.5784 31.6219 16.3991 33.0403 17.2407C34.4724 18.0932 35.7562 18.0932 37.1312 17.2501C38.3947 16.4751 39.6633 15.7521 41.0065 14.9858C41.4689 14.7223 41.9335 14.4575 42.4031 14.1868C42.6868 16.009 42.1195 17.046 40.5144 17.714C39.4144 18.1713 38.3846 18.8125 37.3874 19.4327C37.0038 19.6715 36.6188 19.911 36.231 20.1397C35.4465 20.6029 34.738 20.6029 33.9398 20.1397C32.753 19.4493 31.5633 18.7662 30.3728 18.0831C28.5557 17.0395 26.677 15.9605 24.844 14.875C23.5573 14.113 22.3553 14.1173 21.0375 14.891C19.5431 15.768 18.0437 16.6386 16.5442 17.5085ZM21.5014 28.5155C21.5101 29.1516 21.2749 29.2681 20.5765 29.2775C20.2885 29.2775 20.096 29.2247 19.9889 29.1168C19.8818 29.0083 19.8283 28.8071 19.8312 28.5205C19.8681 24.908 19.8659 21.286 19.8579 17.9108C19.855 17.1502 20.2668 16.9628 20.8913 16.6791C21.0918 16.588 21.306 16.4903 21.5166 16.3643V17.4788C21.518 18.6005 21.518 19.6324 21.5151 20.6637C21.513 21.4525 21.5065 22.2405 21.5014 23.0293C21.4891 24.8269 21.4753 26.686 21.5014 28.5155ZM40.6019 34.2498C40.6034 34.6138 40.5469 34.8483 40.4297 34.9663C40.3255 35.0698 40.1366 35.0907 39.8384 35.1204C39.5027 35.1175 39.2812 35.056 39.1618 34.9337C39.0359 34.8056 38.9766 34.5682 38.9809 34.2093C39.0265 30.1633 39.0641 25.8538 38.9845 21.5494C38.965 20.4357 39.2834 19.9002 40.1597 19.5745C40.3146 19.5174 40.4557 19.445 40.6099 19.3618C40.6258 19.5145 40.6374 19.652 40.6367 19.7895C40.6323 21.2426 40.6258 22.6964 40.62 24.1496C40.6055 27.5154 40.5911 30.8826 40.6019 34.2498Z" fill="#F50A81"/>
</svg>
