<svg width="48" height="35" viewBox="0 0 48 35" fill="none" xmlns="http://www.w3.org/2000/svg">
<path fill-rule="evenodd" clip-rule="evenodd" d="M39.0701 31.0828C28.9606 31.0828 19.0169 31.0828 8.93924 31.0828C8.93924 32.058 8.91719 32.9546 8.94577 33.8504C8.97028 34.6294 8.6493 34.9894 7.84638 34.9732C6.72574 34.9496 5.60509 34.9691 4.48363 34.9764C3.77056 34.9813 3.41279 34.6748 3.43566 33.929C3.46425 32.9943 3.44222 32.058 3.44222 30.9936C2.605 30.9936 1.90907 30.9685 1.2148 31.0001C0.36451 31.0382 -0.0103993 30.641 0.000219107 29.8238C0.0141047 28.6702 0.0508653 27.5167 0.0255446 26.3639C0.00757506 25.503 0.406175 25.182 1.23359 25.203C2.26112 25.2306 3.29027 25.2095 4.48443 25.2095C4.48443 24.6356 4.48443 24.197 4.48443 23.7593C4.48279 16.5881 4.47953 9.41783 4.48116 2.24751C4.48116 0.600247 4.56692 0.525666 6.25198 0.524855C8.03749 0.524855 9.82384 0.561331 11.6085 0.509449C12.6491 0.479454 12.9865 0.91397 12.9905 1.9046C13.0004 4.12987 13.0347 4.12906 15.3372 4.125C16.2398 4.12338 17.144 4.125 18.1437 4.125C18.1437 3.20977 18.1699 2.47369 18.1372 1.74004C18.0988 0.892897 18.5154 0.522419 19.3248 0.521608C21.4011 0.519176 23.4766 0.53539 25.5529 0.520798C26.7609 0.511881 26.6458 1.38335 26.6588 2.42829C28.0147 1.82192 29.2407 1.29823 30.4463 0.730762C32.8012 -0.379846 32.8142 -0.398492 33.8777 1.90298C36.9872 8.6331 40.0633 15.3786 43.1949 22.0982C43.6801 23.1391 43.484 23.7041 42.4124 24.0738C41.7549 24.3 41.1333 24.6275 40.5272 25.2136C42.102 25.2136 43.676 25.2014 45.2499 25.216C47.9241 25.2412 48.0769 24.7061 47.9797 27.9585C47.9511 28.9224 48.13 30.2356 47.5917 30.7456C47.0379 31.2725 45.7286 31.0179 44.5859 31.1209C44.5859 32.0078 44.5458 32.8995 44.5973 33.7863C44.6471 34.64 44.269 35.0064 43.4456 34.9999C42.3675 34.9902 41.2885 34.9513 40.212 34.9796C39.3347 35.0023 39.0309 34.5913 39.0619 33.7734C39.0954 32.9149 39.0701 32.0548 39.0701 31.0828ZM1.60769 26.7652C1.60769 27.7015 1.60769 28.5422 1.60769 29.4396C16.569 29.4396 31.4526 29.4396 46.4016 29.4396C46.4016 28.5114 46.4016 27.6691 46.4016 26.7652C31.4698 26.7652 16.618 26.7652 1.60769 26.7652ZM35.2033 25.1487C32.3968 19.0647 29.6549 13.1209 26.9137 7.17634C26.8573 7.2112 26.7993 7.24606 26.7421 7.28173C26.7421 13.2304 26.7421 19.1798 26.7421 25.1487C29.5593 25.1487 32.2759 25.1487 35.2033 25.1487ZM18.0964 10.2601C16.6956 10.2601 15.4124 10.3071 14.1341 10.2439C13.1874 10.1969 12.9489 10.5657 12.9579 11.4631C12.9979 15.6575 12.971 19.8519 12.975 24.0462C12.975 24.4021 13.033 24.758 13.0641 25.1123C14.8014 25.1123 16.4317 25.1123 18.0955 25.1123C18.0963 20.1672 18.0964 15.3251 18.0964 10.2601ZM6.04289 12.2333C6.04289 16.6189 6.04289 20.8425 6.04289 25.1252C7.87823 25.1252 9.63352 25.1252 11.4109 25.1252C11.4109 20.7841 11.4109 16.5306 11.4109 12.2333C9.57961 12.2333 7.85781 12.2333 6.04289 12.2333ZM36.3387 10.8713C34.5875 11.669 32.9841 12.3994 31.3342 13.1517C33.1663 17.1321 34.9469 20.9981 36.7732 24.9655C38.4958 24.1768 40.0894 23.448 41.7622 22.6819C39.9367 18.7048 38.1732 14.8655 36.3387 10.8713ZM19.7267 7.28335C19.7267 11.6074 19.7267 15.7896 19.7267 19.9929C21.5547 19.9929 23.3084 19.9929 25.0669 19.9929C25.0669 15.7175 25.0669 11.5345 25.0669 7.28335C23.2749 7.28335 21.553 7.28335 19.7267 7.28335ZM33.1981 4.08366C31.4845 4.86677 29.9244 5.58014 28.2189 6.36C29.0619 8.18642 29.8729 9.94313 30.715 11.7647C32.4646 10.9686 34.0517 10.2455 35.7098 9.49078C34.8472 7.63517 34.0574 5.93441 33.1981 4.08366ZM11.495 10.6176C11.495 8.83902 11.5171 7.01745 11.4566 5.19752C11.4509 5.03133 10.9175 4.75814 10.621 4.74679C9.34192 4.69815 8.05712 4.69085 6.77965 4.76057C6.50439 4.77597 6.02982 5.16509 6.02083 5.39532C5.9563 7.10582 5.98489 8.81956 5.98489 10.6176C7.81778 10.6176 9.53795 10.6176 11.495 10.6176ZM19.7079 3.31272C21.5743 3.31272 23.2895 3.31272 25.0424 3.31272C25.0424 2.87658 25.0424 2.50206 25.0424 2.13483C23.2087 2.13483 21.4624 2.13483 19.7079 2.13483C19.7079 2.55475 19.7079 2.8701 19.7079 3.31272ZM5.8444 2.85956C5.9612 2.98846 6.07719 3.11654 6.19317 3.24544C7.71895 3.24544 9.24636 3.27219 10.7705 3.21869C11.0204 3.20977 11.2581 2.84416 11.5015 2.64312C11.2606 2.44207 11.0278 2.07971 10.7787 2.06917C9.41626 2.0108 8.04812 1.99053 6.68979 2.07322C6.39329 2.09186 6.12538 2.58475 5.8444 2.85956ZM24.9371 25.212C25.0465 25.0944 25.1551 24.9761 25.2637 24.8585C25.0056 24.5878 24.759 24.0949 24.4886 24.0819C22.9318 24.0065 21.3685 24.0454 19.8067 24.0454C19.7202 24.1646 19.6319 24.2846 19.5445 24.4037C19.8198 24.6737 20.0828 25.1609 20.3719 25.1755C21.8904 25.2533 23.4154 25.212 24.9371 25.212ZM4.97698 33.424C5.78479 33.424 6.56726 33.424 7.35383 33.424C7.35383 32.5906 7.35383 31.8764 7.35383 31.0917C6.52397 31.0917 5.77172 31.0917 4.97698 31.0917C4.97698 31.8635 4.97698 32.5501 4.97698 33.424ZM27.1595 3.87938C27.3433 4.79786 27.6496 5.02971 28.3978 4.64464C29.6026 4.02449 30.8629 3.50971 32.0954 2.94063C32.2384 2.87496 32.3552 2.75337 32.5381 2.61799C32.3413 2.29696 32.1616 2.00432 31.9721 1.69464C30.3124 2.44856 28.7482 3.1587 27.1595 3.87938ZM40.6563 31.0577C40.6563 31.8724 40.6563 32.6239 40.6563 33.4434C41.4853 33.4434 42.2393 33.4434 42.9874 33.4434C42.9874 32.5955 42.9874 31.8464 42.9874 31.0577C42.2066 31.0577 41.5164 31.0577 40.6563 31.0577ZM22.3682 22.5392C22.3682 22.5352 22.3682 22.5311 22.3682 22.5271C23.1139 22.5271 23.8622 22.5611 24.603 22.5035C24.7859 22.4889 24.946 22.1785 25.1159 22.0042C24.946 21.8704 24.7778 21.6248 24.6054 21.6215C23.1556 21.5948 21.705 21.5956 20.256 21.6378C20.0591 21.6434 19.8688 21.9231 19.676 22.0763C19.8688 22.2304 20.0526 22.5019 20.2568 22.5181C20.9568 22.5733 21.6641 22.5392 22.3682 22.5392ZM25.2703 5.70742C25.0873 5.23318 25.0228 4.90243 24.9501 4.90081C23.2977 4.85784 21.6437 4.84244 19.9913 4.85703C19.8827 4.85784 19.6589 5.17967 19.6956 5.27695C19.761 5.45044 19.9807 5.68554 20.1392 5.68878C21.7842 5.71877 23.43 5.70742 25.2703 5.70742ZM18.4541 7.9862C16.3672 7.9862 14.7034 7.9862 13.0126 7.9862C13.2634 8.77822 15.5136 9.15274 17.5589 8.78389C17.808 8.73849 18.0033 8.39964 18.4541 7.9862ZM13.06 5.73498C13.0437 5.89225 13.0281 6.05033 13.0126 6.2076C14.5359 6.65752 16.1385 6.31622 17.6986 6.37054C17.8587 6.37621 18.0294 6.08194 18.4002 5.73498C16.4023 5.73498 14.7312 5.73498 13.06 5.73498Z" fill="#F50A81"/>
</svg>
