<svg width="34" height="25" viewBox="0 0 34 25" fill="none" xmlns="http://www.w3.org/2000/svg">
<path d="M4.75 0C2.79656 0 1.1875 1.60906 1.1875 3.5625V11.6137C0.463125 12.2692 0 13.2074 0 14.25V24.9375H5.9375V22.5625H27.3125V24.9375H33.25V14.25C33.25 13.2074 32.7869 12.2692 32.0625 11.6137V3.5625C32.0625 1.60906 30.4534 0 28.5 0H4.75ZM4.75 2.375H28.5C29.1591 2.375 29.6875 2.90344 29.6875 3.5625V10.6875H27.3125V9.5C27.3125 7.54656 25.7034 5.9375 23.75 5.9375H19C18.0892 5.9375 17.2579 6.29375 16.625 6.86375C15.9756 6.27116 15.1291 5.94105 14.25 5.9375H9.5C7.54656 5.9375 5.9375 7.54656 5.9375 9.5V10.6875H3.5625V3.5625C3.5625 2.90344 4.09094 2.375 4.75 2.375ZM9.5 8.3125H14.25C14.9091 8.3125 15.4375 8.84094 15.4375 9.5V10.6875H8.3125V9.5C8.3125 8.84094 8.84094 8.3125 9.5 8.3125ZM19 8.3125H23.75C24.4091 8.3125 24.9375 8.84094 24.9375 9.5V10.6875H17.8125V9.5C17.8125 8.84094 18.3409 8.3125 19 8.3125ZM3.5625 13.0625H29.6875C30.3466 13.0625 30.875 13.5909 30.875 14.25V22.5625H29.6875V20.1875H3.5625V22.5625H2.375V14.25C2.375 13.5909 2.90344 13.0625 3.5625 13.0625Z" fill="#F50A81"/>
</svg>
