<svg width="40" height="33" viewBox="0 0 40 33" fill="none" xmlns="http://www.w3.org/2000/svg">
<path fill-rule="evenodd" clip-rule="evenodd" d="M20.2846 19.1875C15.6779 19.1875 11.0699 19.1881 6.46251 19.1875C5.00001 19.1868 4.98329 19.1733 4.98265 17.7616C4.98072 12.3262 4.98072 6.89084 4.98265 1.45546C4.98329 0.0745994 5.03281 0.0199556 6.3481 0.0193127C15.6348 0.0173842 24.9222 0.0315278 34.2083 2.77392e-05C35.226 -0.00318656 35.611 0.271957 35.602 1.34039C35.5596 6.84712 35.5616 12.3551 35.6008 17.8625C35.6091 18.9174 35.2465 19.219 34.2148 19.208C29.572 19.1611 24.9286 19.1875 20.2846 19.1875ZM34.0502 1.56153C24.8213 1.56153 15.6972 1.56153 6.54095 1.56153C6.54095 6.95962 6.54095 12.2954 6.54095 17.6394C15.7454 17.6394 24.8708 17.6394 34.0502 17.6394C34.0502 12.2716 34.0502 6.96155 34.0502 1.56153Z" fill="#F50A81"/>
<path fill-rule="evenodd" clip-rule="evenodd" d="M20.1734 30.8785C14.1608 30.8785 8.14876 30.8534 2.13609 30.9022C1.06895 30.9112 0.776438 30.568 0.818867 29.5471C0.892153 27.7863 0.871588 26.0191 0.825302 24.2564C0.803445 23.4309 1.0535 23.1044 1.92329 23.1057C14.1633 23.1262 26.404 23.1256 38.6447 23.1063C39.5145 23.105 39.7626 23.4387 39.7414 24.2615C39.6971 26.0602 39.6823 27.8628 39.7466 29.6609C39.78 30.5975 39.4984 30.9048 38.5335 30.8984C32.4141 30.8598 26.2935 30.8785 20.1734 30.8785ZM38.1979 24.6819C32.4186 24.6819 26.7563 24.6819 21.0831 24.6819C21.0831 26.2782 21.0831 27.8005 21.0831 29.317C26.8341 29.317 32.4983 29.317 38.1979 29.317C38.1979 27.7445 38.1979 26.246 38.1979 24.6819ZM19.5145 24.6755C13.7429 24.6755 8.07804 24.6755 2.40416 24.6755C2.40416 26.2679 2.40416 27.7921 2.40416 29.3189C8.13911 29.3189 13.8008 29.3189 19.5145 29.3189C19.5145 27.7516 19.5145 26.2557 19.5145 24.6755Z" fill="#F50A81"/>
<path fill-rule="evenodd" clip-rule="evenodd" d="M20.1734 22.2565C18.3065 22.2565 16.4377 22.2963 14.5741 22.2237C14.1961 22.2095 13.5635 21.8123 13.5198 21.521C13.4156 20.8267 14.0084 20.7097 14.6088 20.7207C15.7576 20.7419 16.907 20.7547 18.0545 20.7149C18.6247 20.6956 19.348 21.0492 19.6733 20.1254C19.7144 20.0065 20.5636 20.1093 21.0123 20.216C21.3897 20.3054 21.7233 20.6853 22.0878 20.7027C23.4134 20.7637 24.7473 20.6712 26.0684 20.7644C26.4291 20.7901 26.7575 21.2658 27.1002 21.5352C26.7653 21.7762 26.4374 22.2127 26.0954 22.2243C24.1244 22.2905 22.1489 22.2565 20.1734 22.2565Z" fill="#F50A81"/>
<path fill-rule="evenodd" clip-rule="evenodd" d="M6.79492 31.4249C7.61842 31.4249 8.25487 31.4249 9.06616 31.4249C8.98066 31.7502 8.94528 32.2311 8.83407 32.2497C8.28121 32.3429 7.70071 32.3635 7.14656 32.2896C7.01092 32.2709 6.93764 31.7959 6.79492 31.4249Z" fill="#F50A81"/>
<path fill-rule="evenodd" clip-rule="evenodd" d="M33.6362 31.4224C33.8072 32.7524 32.8673 32.3192 32.3003 32.377C31.6273 32.4458 31.39 32.116 31.6131 31.4224C32.2637 31.4224 32.9001 31.4224 33.6362 31.4224Z" fill="#F50A81"/>
<path fill-rule="evenodd" clip-rule="evenodd" d="M29.5868 27.6996C29.1934 27.4232 28.8662 27.1937 28.5383 26.9642C28.8983 26.826 29.2641 26.5656 29.6164 26.5823C29.9809 26.6003 30.3332 26.887 30.6906 27.0561C30.3654 27.2457 30.0401 27.4347 29.5868 27.6996Z" fill="#F50A81"/>
<path fill-rule="evenodd" clip-rule="evenodd" d="M10.9433 27.7445C10.5177 27.4649 10.2053 27.2592 9.89221 27.0535C10.258 26.8882 10.6212 26.6048 10.9921 26.5932C11.3367 26.5816 11.6909 26.8606 12.0406 27.011C11.7044 27.236 11.3669 27.461 10.9433 27.7445Z" fill="#F50A81"/>
</svg>
