<svg width="20" height="20" viewBox="0 0 20 20" fill="none" xmlns="http://www.w3.org/2000/svg">
<path d="M18.947 6.30496C18.9369 5.54758 18.7951 4.79773 18.528 4.08896C18.2963 3.49111 17.9425 2.94816 17.4892 2.49479C17.0358 2.04142 16.4928 1.68761 15.895 1.45596C15.1953 1.19331 14.4562 1.0513 13.709 1.03596C12.747 0.992957 12.442 0.980957 9.99999 0.980957C7.55799 0.980957 7.24499 0.980957 6.28999 1.03596C5.54315 1.05141 4.80434 1.19343 4.10499 1.45596C3.50705 1.68745 2.96402 2.0412 2.51063 2.49459C2.05724 2.94798 1.70348 3.49102 1.47199 4.08896C1.20883 4.78809 1.06712 5.52707 1.05299 6.27396C1.00999 7.23696 0.996994 7.54196 0.996994 9.98396C0.996994 12.426 0.996994 12.738 1.05299 13.694C1.06799 14.442 1.20899 15.18 1.47199 15.881C1.70387 16.4787 2.05789 17.0215 2.51143 17.4747C2.96497 17.9279 3.50806 18.2815 4.10599 18.513C4.80343 18.7862 5.54237 18.9383 6.29099 18.963C7.25399 19.006 7.55899 19.019 10.001 19.019C12.443 19.019 12.756 19.019 13.711 18.963C14.4581 18.9482 15.1974 18.8066 15.897 18.544C16.4947 18.312 17.0375 17.9581 17.4908 17.5048C17.9442 17.0515 18.2981 16.5086 18.53 15.911C18.793 15.211 18.934 14.473 18.949 13.724C18.992 12.762 19.005 12.457 19.005 10.014C19.003 7.57196 19.003 7.26196 18.947 6.30496ZM9.99399 14.602C7.43999 14.602 5.37099 12.533 5.37099 9.97896C5.37099 7.42496 7.43999 5.35596 9.99399 5.35596C11.2201 5.35596 12.396 5.84302 13.2629 6.71C14.1299 7.57698 14.617 8.75286 14.617 9.97896C14.617 11.2051 14.1299 12.3809 13.2629 13.2479C12.396 14.1149 11.2201 14.602 9.99399 14.602ZM14.801 6.26296C14.6594 6.26309 14.5192 6.2353 14.3883 6.18117C14.2575 6.12704 14.1386 6.04764 14.0384 5.94751C13.9383 5.84738 13.8589 5.72849 13.8048 5.59765C13.7507 5.4668 13.7229 5.32656 13.723 5.18496C13.723 5.04346 13.7509 4.90334 13.805 4.77262C13.8592 4.64189 13.9385 4.5231 14.0386 4.42305C14.1386 4.32299 14.2574 4.24363 14.3882 4.18948C14.5189 4.13533 14.659 4.10746 14.8005 4.10746C14.942 4.10746 15.0821 4.13533 15.2128 4.18948C15.3436 4.24363 15.4623 4.32299 15.5624 4.42305C15.6625 4.5231 15.7418 4.64189 15.796 4.77262C15.8501 4.90334 15.878 5.04346 15.878 5.18496C15.878 5.78096 15.396 6.26296 14.801 6.26296Z" fill="black"/>
</svg>
