<svg width="24" height="18" viewBox="0 0 24 18" fill="none" xmlns="http://www.w3.org/2000/svg">
<path d="M23.5 3.50708C23.3641 3.02231 23.0994 2.58342 22.734 2.23708C22.3583 1.88008 21.8978 1.62471 21.396 1.49508C19.518 1.00008 11.994 1.00008 11.994 1.00008C8.85734 0.964389 5.72144 1.12135 2.60401 1.47008C2.1022 1.60929 1.64257 1.87036 1.26601 2.23008C0.896007 2.58608 0.628007 3.02508 0.488007 3.50608C0.1517 5.31782 -0.0117011 7.15742 6.83166e-06 9.00008C-0.0119932 10.8411 0.151007 12.6801 0.488007 14.4941C0.625007 14.9731 0.892007 15.4101 1.26301 15.7631C1.63401 16.1161 2.09601 16.3711 2.60401 16.5061C4.50701 17.0001 11.994 17.0001 11.994 17.0001C15.1347 17.0358 18.2746 16.8789 21.396 16.5301C21.8978 16.4004 22.3583 16.1451 22.734 15.7881C23.0993 15.4418 23.3637 15.0029 23.499 14.5181C23.8441 12.707 24.0119 10.8667 24 9.02308C24.026 7.17168 23.8584 5.32264 23.5 3.50608V3.50708ZM9.60201 12.4241V5.57708L15.862 9.00108L9.60201 12.4241Z" fill="black"/>
</svg>
