<svg width="24" height="23" viewBox="0 0 24 23" fill="none" xmlns="http://www.w3.org/2000/svg">
<path fill-rule="evenodd" clip-rule="evenodd" d="M0.75 1.5C0.75 1.08579 1.08579 0.75 1.5 0.75H3.75C4.0973 0.75 4.39916 0.988434 4.4796 1.32628L5.05668 3.75H22.5C22.7286 3.75 22.9446 3.85422 23.0869 4.03309C23.2292 4.21195 23.2822 4.44594 23.2308 4.66864L20.9808 14.4186C20.9023 14.7589 20.5992 15 20.25 15H7.73525L8.09239 16.5H20.25C20.6642 16.5 21 16.8358 21 17.25C21 17.6642 20.6642 18 20.25 18H7.5C7.1527 18 6.85084 17.7616 6.77039 17.4237L6.10651 14.6354C6.06704 14.5695 6.03722 14.4967 6.01921 14.4186L4.89479 9.54618L3.15761 2.25H1.5C1.08579 2.25 0.75 1.91421 0.75 1.5ZM7.37811 13.5H19.6534L21.5572 5.25H5.44279L6.3552 9.2038L7.37811 13.5Z" fill="#0082CE"/>
<path fill-rule="evenodd" clip-rule="evenodd" d="M18.75 19.5C18.3358 19.5 18 19.8358 18 20.25C18 20.6642 18.3358 21 18.75 21C19.1642 21 19.5 20.6642 19.5 20.25C19.5 19.8358 19.1642 19.5 18.75 19.5ZM16.5 20.25C16.5 19.0074 17.5074 18 18.75 18C19.9926 18 21 19.0074 21 20.25C21 21.4926 19.9926 22.5 18.75 22.5C17.5074 22.5 16.5 21.4926 16.5 20.25Z" fill="#0082CE"/>
<path fill-rule="evenodd" clip-rule="evenodd" d="M9 19.5C8.58579 19.5 8.25 19.8358 8.25 20.25C8.25 20.6642 8.58579 21 9 21C9.41421 21 9.75 20.6642 9.75 20.25C9.75 19.8358 9.41421 19.5 9 19.5ZM6.75 20.25C6.75 19.0074 7.75736 18 9 18C10.2426 18 11.25 19.0074 11.25 20.25C11.25 21.4926 10.2426 22.5 9 22.5C7.75736 22.5 6.75 21.4926 6.75 20.25Z" fill="#0082CE"/>
</svg>
