<svg width="22" height="22" viewBox="0 0 22 22" fill="none" xmlns="http://www.w3.org/2000/svg">
<path d="M11 0C9.79134 0 8.60982 0.339547 7.60485 0.975702C6.59988 1.61186 5.81661 2.51605 5.35407 3.57394C4.89153 4.63183 4.77051 5.7959 5.00631 6.91894C5.24211 8.04199 5.82414 9.07358 6.67879 9.88325C7.53345 10.6929 8.62234 11.2443 9.80778 11.4677C10.9932 11.6911 12.222 11.5764 13.3386 11.1383C14.4553 10.7001 15.4097 9.95801 16.0812 9.00593C16.7527 8.05386 17.1111 6.93452 17.1111 5.78947C17.1111 4.25401 16.4673 2.78143 15.3212 1.6957C14.1752 0.609961 12.6208 0 11 0ZM11 9.26316C10.2748 9.26316 9.56589 9.05943 8.96291 8.67774C8.35993 8.29604 7.88996 7.75353 7.61244 7.11879C7.33492 6.48406 7.26231 5.78562 7.40379 5.11179C7.54527 4.43796 7.89448 3.81901 8.40727 3.33321C8.92007 2.8474 9.57341 2.51657 10.2847 2.38254C10.9959 2.2485 11.7332 2.31729 12.4032 2.58021C13.0732 2.84312 13.6458 3.28835 14.0487 3.8596C14.4516 4.43084 14.6667 5.10244 14.6667 5.78947C14.6667 6.71075 14.2804 7.5943 13.5927 8.24574C12.9051 8.89718 11.9725 9.26316 11 9.26316ZM22 22V20.8421C22 18.6925 21.0986 16.6309 19.4941 15.1108C17.8897 13.5908 15.7135 12.7368 13.4444 12.7368H8.55556C6.28648 12.7368 4.11034 13.5908 2.50586 15.1108C0.901386 16.6309 0 18.6925 0 20.8421V22H2.44444V20.8421C2.44444 19.3066 3.08829 17.8341 4.23435 16.7483C5.3804 15.6626 6.93479 15.0526 8.55556 15.0526H13.4444C15.0652 15.0526 16.6196 15.6626 17.7657 16.7483C18.9117 17.8341 19.5556 19.3066 19.5556 20.8421V22H22Z" fill="#0082CE"/>
</svg>
