<svg width="22" height="20" viewBox="0 0 22 20" fill="none" xmlns="http://www.w3.org/2000/svg">
<path fill-rule="evenodd" clip-rule="evenodd" d="M0 5.95C0 2.65418 2.6963 0 6 0C7.72865 0 9.20429 0.926746 10.1735 1.73008C10.4908 1.99305 10.7686 2.2551 11 2.49019C11.2314 2.2551 11.5092 1.99305 11.8265 1.73008C12.7957 0.926746 14.2713 0 16 0C19.3037 0 22 2.65418 22 5.95C22 7.19839 21.7492 9.23793 20.3522 11.6614C18.9586 14.0792 16.4556 16.8247 12.0357 19.5419L12.0318 19.5443C11.7209 19.7335 11.3639 19.8335 11 19.8335C10.6361 19.8335 10.2791 19.7335 9.9682 19.5443L9.96428 19.5419C5.54438 16.8247 3.04141 14.0792 1.64775 11.6614C0.250803 9.23793 0 7.19839 0 5.95ZM10.1986 4.59812L10.1978 4.59707L10.1845 4.57987C10.1716 4.56326 10.1507 4.53665 10.1221 4.50149C10.0649 4.43106 9.97764 4.32683 9.86362 4.2001C9.63441 3.94534 9.3033 3.60648 8.89723 3.26992C8.05671 2.57325 7.03235 2 6 2C3.7817 2 2 3.77782 2 5.95C2 6.90861 2.1867 8.59157 3.3805 10.6626C4.57647 12.7374 6.81444 15.2556 11 17.8309C15.1856 15.2556 17.4235 12.7374 18.6195 10.6626C19.8133 8.59157 20 6.90861 20 5.95C20 3.77782 18.2183 2 16 2C14.9677 2 13.9433 2.57325 13.1028 3.26992C12.6967 3.60648 12.3656 3.94534 12.1364 4.2001C12.0224 4.32683 11.9351 4.43106 11.8779 4.50149C11.8493 4.53665 11.8284 4.56326 11.8155 4.57987L11.8022 4.59707L11.8014 4.59812C11.8015 4.59797 11.8013 4.59826 11.8014 4.59812C11.8016 4.59791 11.8014 4.59812 11 4M10.1986 4.59812C10.1986 4.59819 10.1993 4.59904 10.1993 4.59911C10.3881 4.8511 10.685 5 11 5C11.3154 5 11.6126 4.85077 11.8014 4.59812" fill="#0082CE"/>
</svg>
